<mxfile host="app.diagrams.net" modified="2022-05-03T19:09:20.084Z" agent="5.0 (Windows NT 10.0; Win64; x64) AppleWebKit/537.36 (KHTML, like Gecko) Chrome/101.0.4951.41 Safari/537.36 Edg/101.0.1210.32" etag="SiSvJ6F9xn1pnqrhTt_k" version="17.5.0" type="github">
  <diagram id="EMfpHeXSgs2jr42ty03k" name="Page-1">
    <mxGraphModel dx="1141" dy="697" grid="1" gridSize="10" guides="1" tooltips="1" connect="1" arrows="1" fold="1" page="1" pageScale="1" pageWidth="827" pageHeight="1169" math="0" shadow="0">
      <root>
        <mxCell id="0" />
        <mxCell id="1" parent="0" />
        <mxCell id="JX3x0ieXhLv8nkuyuOWl-60" value="Use Case Table" style="shape=table;startSize=30;container=1;collapsible=0;childLayout=tableLayout;" vertex="1" parent="1">
          <mxGeometry x="170" y="10" width="490" height="1042" as="geometry" />
        </mxCell>
        <mxCell id="JX3x0ieXhLv8nkuyuOWl-61" value="" style="shape=tableRow;horizontal=0;startSize=0;swimlaneHead=0;swimlaneBody=0;top=0;left=0;bottom=0;right=0;collapsible=0;dropTarget=0;fillColor=none;points=[[0,0.5],[1,0.5]];portConstraint=eastwest;" vertex="1" parent="JX3x0ieXhLv8nkuyuOWl-60">
          <mxGeometry y="30" width="490" height="101" as="geometry" />
        </mxCell>
        <mxCell id="JX3x0ieXhLv8nkuyuOWl-62" value="&lt;font style=&quot;font-size: 18px&quot;&gt;Use Case&lt;br&gt;1&lt;/font&gt;" style="shape=partialRectangle;html=1;whiteSpace=wrap;connectable=0;overflow=hidden;fillColor=none;top=0;left=0;bottom=0;right=0;pointerEvents=1;" vertex="1" parent="JX3x0ieXhLv8nkuyuOWl-61">
          <mxGeometry width="70" height="101" as="geometry">
            <mxRectangle width="70" height="101" as="alternateBounds" />
          </mxGeometry>
        </mxCell>
        <mxCell id="JX3x0ieXhLv8nkuyuOWl-63" value="&lt;font style=&quot;font-size: 18px&quot;&gt;Start &lt;br&gt;Car&lt;/font&gt;" style="shape=partialRectangle;html=1;whiteSpace=wrap;connectable=0;overflow=hidden;fillColor=none;top=0;left=0;bottom=0;right=0;pointerEvents=1;" vertex="1" parent="JX3x0ieXhLv8nkuyuOWl-61">
          <mxGeometry x="70" width="110" height="101" as="geometry">
            <mxRectangle width="110" height="101" as="alternateBounds" />
          </mxGeometry>
        </mxCell>
        <mxCell id="JX3x0ieXhLv8nkuyuOWl-64" value="Engine = on&lt;br&gt;CurrentGear = Park&lt;br&gt;DriveGear = 1&lt;br&gt;IdleRPM = &lt;span style=&quot;background-color: rgb(204 , 255 , 153)&quot;&gt;650&lt;br&gt;&lt;/span&gt;GearRatio = &lt;span style=&quot;background-color: rgb(204 , 255 , 153)&quot;&gt;XXX&lt;/span&gt;&lt;br&gt;&lt;span style=&quot;background-color: rgb(255 , 255 , 255)&quot;&gt;Velocity = 0&lt;/span&gt;" style="shape=partialRectangle;html=1;whiteSpace=wrap;connectable=0;overflow=hidden;fillColor=none;top=0;left=0;bottom=0;right=0;pointerEvents=1;align=left;" vertex="1" parent="JX3x0ieXhLv8nkuyuOWl-61">
          <mxGeometry x="180" width="310" height="101" as="geometry">
            <mxRectangle width="310" height="101" as="alternateBounds" />
          </mxGeometry>
        </mxCell>
        <mxCell id="JX3x0ieXhLv8nkuyuOWl-65" value="" style="shape=tableRow;horizontal=0;startSize=0;swimlaneHead=0;swimlaneBody=0;top=0;left=0;bottom=0;right=0;collapsible=0;dropTarget=0;fillColor=none;points=[[0,0.5],[1,0.5]];portConstraint=eastwest;" vertex="1" parent="JX3x0ieXhLv8nkuyuOWl-60">
          <mxGeometry y="131" width="490" height="102" as="geometry" />
        </mxCell>
        <mxCell id="JX3x0ieXhLv8nkuyuOWl-66" value="&lt;span style=&quot;font-size: 18px&quot;&gt;Use Case&lt;/span&gt;&lt;br style=&quot;font-size: 18px&quot;&gt;&lt;span style=&quot;font-size: 18px&quot;&gt;2&lt;/span&gt;" style="shape=partialRectangle;html=1;whiteSpace=wrap;connectable=0;overflow=hidden;fillColor=none;top=0;left=0;bottom=0;right=0;pointerEvents=1;" vertex="1" parent="JX3x0ieXhLv8nkuyuOWl-65">
          <mxGeometry width="70" height="102" as="geometry">
            <mxRectangle width="70" height="102" as="alternateBounds" />
          </mxGeometry>
        </mxCell>
        <mxCell id="JX3x0ieXhLv8nkuyuOWl-67" value="&lt;span style=&quot;font-size: 18px&quot;&gt;Reverse&lt;/span&gt;&lt;br style=&quot;font-size: 18px&quot;&gt;&lt;span style=&quot;font-size: 18px&quot;&gt;Car&lt;/span&gt;" style="shape=partialRectangle;html=1;whiteSpace=wrap;connectable=0;overflow=hidden;fillColor=none;top=0;left=0;bottom=0;right=0;pointerEvents=1;" vertex="1" parent="JX3x0ieXhLv8nkuyuOWl-65">
          <mxGeometry x="70" width="110" height="102" as="geometry">
            <mxRectangle width="110" height="102" as="alternateBounds" />
          </mxGeometry>
        </mxCell>
        <mxCell id="JX3x0ieXhLv8nkuyuOWl-68" value="&lt;span&gt;Engine = on&lt;/span&gt;&lt;br&gt;&lt;span&gt;CurrentGear = Reverse&lt;/span&gt;&lt;br&gt;&lt;span&gt;DriveGear = 1&lt;/span&gt;&lt;br&gt;&lt;span&gt;IdleRPM =&amp;nbsp;&lt;/span&gt;&lt;span style=&quot;background-color: rgb(204 , 255 , 153)&quot;&gt;650&lt;br&gt;&lt;/span&gt;GearRatio = &lt;span style=&quot;background-color: rgb(204 , 255 , 153)&quot;&gt;XXX&lt;/span&gt;&lt;br&gt;&lt;span style=&quot;background-color: rgb(255 , 255 , 255)&quot;&gt;Velocity = 0&lt;/span&gt;" style="shape=partialRectangle;html=1;whiteSpace=wrap;connectable=0;overflow=hidden;fillColor=none;top=0;left=0;bottom=0;right=0;pointerEvents=1;align=left;" vertex="1" parent="JX3x0ieXhLv8nkuyuOWl-65">
          <mxGeometry x="180" width="310" height="102" as="geometry">
            <mxRectangle width="310" height="102" as="alternateBounds" />
          </mxGeometry>
        </mxCell>
        <mxCell id="JX3x0ieXhLv8nkuyuOWl-69" value="" style="shape=tableRow;horizontal=0;startSize=0;swimlaneHead=0;swimlaneBody=0;top=0;left=0;bottom=0;right=0;collapsible=0;dropTarget=0;fillColor=none;points=[[0,0.5],[1,0.5]];portConstraint=eastwest;" vertex="1" parent="JX3x0ieXhLv8nkuyuOWl-60">
          <mxGeometry y="233" width="490" height="101" as="geometry" />
        </mxCell>
        <mxCell id="JX3x0ieXhLv8nkuyuOWl-70" value="&lt;span style=&quot;font-size: 18px&quot;&gt;Use Case&lt;/span&gt;&lt;br style=&quot;font-size: 18px&quot;&gt;&lt;span style=&quot;font-size: 18px&quot;&gt;3&lt;/span&gt;" style="shape=partialRectangle;html=1;whiteSpace=wrap;connectable=0;overflow=hidden;fillColor=none;top=0;left=0;bottom=0;right=0;pointerEvents=1;" vertex="1" parent="JX3x0ieXhLv8nkuyuOWl-69">
          <mxGeometry width="70" height="101" as="geometry">
            <mxRectangle width="70" height="101" as="alternateBounds" />
          </mxGeometry>
        </mxCell>
        <mxCell id="JX3x0ieXhLv8nkuyuOWl-71" value="&lt;span style=&quot;font-size: 18px&quot;&gt;Stop Car&lt;/span&gt;" style="shape=partialRectangle;html=1;whiteSpace=wrap;connectable=0;overflow=hidden;fillColor=none;top=0;left=0;bottom=0;right=0;pointerEvents=1;" vertex="1" parent="JX3x0ieXhLv8nkuyuOWl-69">
          <mxGeometry x="70" width="110" height="101" as="geometry">
            <mxRectangle width="110" height="101" as="alternateBounds" />
          </mxGeometry>
        </mxCell>
        <mxCell id="JX3x0ieXhLv8nkuyuOWl-72" value="Engine = on&lt;br&gt;CurrentGear = Reverse&lt;br&gt;DriveGear = 1&lt;br&gt;IdleRPM = &lt;span style=&quot;background-color: rgb(204 , 255 , 153)&quot;&gt;XXX&lt;/span&gt;&lt;span style=&quot;background-color: rgb(204 , 255 , 153)&quot;&gt;&lt;br&gt;&lt;/span&gt;GearRatio =&amp;nbsp;&lt;span style=&quot;background-color: rgb(204 , 255 , 153)&quot;&gt;XXX&lt;/span&gt;&lt;br&gt;&lt;span style=&quot;background-color: rgb(255 , 255 , 255)&quot;&gt;Velocity = 0&lt;/span&gt;" style="shape=partialRectangle;html=1;whiteSpace=wrap;connectable=0;overflow=hidden;fillColor=none;top=0;left=0;bottom=0;right=0;pointerEvents=1;align=left;" vertex="1" parent="JX3x0ieXhLv8nkuyuOWl-69">
          <mxGeometry x="180" width="310" height="101" as="geometry">
            <mxRectangle width="310" height="101" as="alternateBounds" />
          </mxGeometry>
        </mxCell>
        <mxCell id="JX3x0ieXhLv8nkuyuOWl-73" value="" style="shape=tableRow;horizontal=0;startSize=0;swimlaneHead=0;swimlaneBody=0;top=0;left=0;bottom=0;right=0;collapsible=0;dropTarget=0;fillColor=none;points=[[0,0.5],[1,0.5]];portConstraint=eastwest;" vertex="1" parent="JX3x0ieXhLv8nkuyuOWl-60">
          <mxGeometry y="334" width="490" height="101" as="geometry" />
        </mxCell>
        <mxCell id="JX3x0ieXhLv8nkuyuOWl-74" value="&lt;span style=&quot;font-size: 18px&quot;&gt;Use Case&lt;/span&gt;&lt;br style=&quot;font-size: 18px&quot;&gt;&lt;span style=&quot;font-size: 18px&quot;&gt;4&lt;/span&gt;" style="shape=partialRectangle;html=1;whiteSpace=wrap;connectable=0;overflow=hidden;fillColor=none;top=0;left=0;bottom=0;right=0;pointerEvents=1;" vertex="1" parent="JX3x0ieXhLv8nkuyuOWl-73">
          <mxGeometry width="70" height="101" as="geometry">
            <mxRectangle width="70" height="101" as="alternateBounds" />
          </mxGeometry>
        </mxCell>
        <mxCell id="JX3x0ieXhLv8nkuyuOWl-75" value="&lt;span style=&quot;font-size: 18px&quot;&gt;Park&lt;/span&gt;&lt;br style=&quot;font-size: 18px&quot;&gt;&lt;span style=&quot;font-size: 18px&quot;&gt;Car&lt;/span&gt;" style="shape=partialRectangle;html=1;whiteSpace=wrap;connectable=0;overflow=hidden;fillColor=none;top=0;left=0;bottom=0;right=0;pointerEvents=1;" vertex="1" parent="JX3x0ieXhLv8nkuyuOWl-73">
          <mxGeometry x="70" width="110" height="101" as="geometry">
            <mxRectangle width="110" height="101" as="alternateBounds" />
          </mxGeometry>
        </mxCell>
        <mxCell id="JX3x0ieXhLv8nkuyuOWl-76" value="&lt;span&gt;Engine = on&lt;/span&gt;&lt;br&gt;&lt;span&gt;CurrentGear = Park&lt;/span&gt;&lt;br&gt;&lt;span&gt;DriveGear = 1&lt;/span&gt;&lt;br&gt;&lt;span&gt;IdleRPM =&amp;nbsp;&lt;/span&gt;&lt;span style=&quot;background-color: rgb(204 , 255 , 153)&quot;&gt;XXX&lt;br&gt;&lt;/span&gt;&lt;span&gt;GearRatio =&amp;nbsp;&lt;/span&gt;&lt;span style=&quot;background-color: rgb(204 , 255 , 153)&quot;&gt;XXX&lt;/span&gt;&lt;br&gt;&lt;span style=&quot;background-color: rgb(255 , 255 , 255)&quot;&gt;Velocity = 0&lt;/span&gt;" style="shape=partialRectangle;html=1;whiteSpace=wrap;connectable=0;overflow=hidden;fillColor=none;top=0;left=0;bottom=0;right=0;pointerEvents=1;align=left;" vertex="1" parent="JX3x0ieXhLv8nkuyuOWl-73">
          <mxGeometry x="180" width="310" height="101" as="geometry">
            <mxRectangle width="310" height="101" as="alternateBounds" />
          </mxGeometry>
        </mxCell>
        <mxCell id="JX3x0ieXhLv8nkuyuOWl-77" value="" style="shape=tableRow;horizontal=0;startSize=0;swimlaneHead=0;swimlaneBody=0;top=0;left=0;bottom=0;right=0;collapsible=0;dropTarget=0;fillColor=none;points=[[0,0.5],[1,0.5]];portConstraint=eastwest;" vertex="1" parent="JX3x0ieXhLv8nkuyuOWl-60">
          <mxGeometry y="435" width="490" height="101" as="geometry" />
        </mxCell>
        <mxCell id="JX3x0ieXhLv8nkuyuOWl-78" value="&lt;span style=&quot;font-size: 18px&quot;&gt;Use Case&lt;/span&gt;&lt;br style=&quot;font-size: 18px&quot;&gt;&lt;span style=&quot;font-size: 18px&quot;&gt;5&lt;/span&gt;" style="shape=partialRectangle;html=1;whiteSpace=wrap;connectable=0;overflow=hidden;fillColor=none;top=0;left=0;bottom=0;right=0;pointerEvents=1;" vertex="1" parent="JX3x0ieXhLv8nkuyuOWl-77">
          <mxGeometry width="70" height="101" as="geometry">
            <mxRectangle width="70" height="101" as="alternateBounds" />
          </mxGeometry>
        </mxCell>
        <mxCell id="JX3x0ieXhLv8nkuyuOWl-79" value="&lt;span style=&quot;font-size: 18px&quot;&gt;Drive&lt;/span&gt;&lt;br style=&quot;font-size: 18px&quot;&gt;&lt;span style=&quot;font-size: 18px&quot;&gt;Car (Gear 1)&lt;/span&gt;" style="shape=partialRectangle;html=1;whiteSpace=wrap;connectable=0;overflow=hidden;fillColor=none;top=0;left=0;bottom=0;right=0;pointerEvents=1;" vertex="1" parent="JX3x0ieXhLv8nkuyuOWl-77">
          <mxGeometry x="70" width="110" height="101" as="geometry">
            <mxRectangle width="110" height="101" as="alternateBounds" />
          </mxGeometry>
        </mxCell>
        <mxCell id="JX3x0ieXhLv8nkuyuOWl-80" value="&lt;span&gt;Engine = on&lt;/span&gt;&lt;br&gt;&lt;span&gt;CurrentGear = Drive&lt;/span&gt;&lt;br&gt;&lt;span&gt;DriveGear = 1&lt;/span&gt;&lt;br&gt;&lt;span&gt;IdleRPM =&amp;nbsp;&lt;/span&gt;&lt;span style=&quot;background-color: rgb(204 , 255 , 153)&quot;&gt;XXX&lt;br&gt;&lt;/span&gt;&lt;span&gt;GearRatio =&amp;nbsp;&lt;/span&gt;&lt;span style=&quot;background-color: rgb(204 , 255 , 153)&quot;&gt;XXX&lt;/span&gt;&lt;br&gt;&lt;span style=&quot;background-color: rgb(255 , 255 , 255)&quot;&gt;Velocity = 0&lt;/span&gt;" style="shape=partialRectangle;html=1;whiteSpace=wrap;connectable=0;overflow=hidden;fillColor=none;top=0;left=0;bottom=0;right=0;pointerEvents=1;align=left;" vertex="1" parent="JX3x0ieXhLv8nkuyuOWl-77">
          <mxGeometry x="180" width="310" height="101" as="geometry">
            <mxRectangle width="310" height="101" as="alternateBounds" />
          </mxGeometry>
        </mxCell>
        <mxCell id="JX3x0ieXhLv8nkuyuOWl-81" value="" style="shape=tableRow;horizontal=0;startSize=0;swimlaneHead=0;swimlaneBody=0;top=0;left=0;bottom=0;right=0;collapsible=0;dropTarget=0;fillColor=none;points=[[0,0.5],[1,0.5]];portConstraint=eastwest;" vertex="1" parent="JX3x0ieXhLv8nkuyuOWl-60">
          <mxGeometry y="536" width="490" height="102" as="geometry" />
        </mxCell>
        <mxCell id="JX3x0ieXhLv8nkuyuOWl-82" value="&lt;span style=&quot;font-size: 18px&quot;&gt;Use Case&lt;/span&gt;&lt;br style=&quot;font-size: 18px&quot;&gt;&lt;span style=&quot;font-size: 18px&quot;&gt;6&lt;/span&gt;" style="shape=partialRectangle;html=1;whiteSpace=wrap;connectable=0;overflow=hidden;fillColor=none;top=0;left=0;bottom=0;right=0;pointerEvents=1;" vertex="1" parent="JX3x0ieXhLv8nkuyuOWl-81">
          <mxGeometry width="70" height="102" as="geometry">
            <mxRectangle width="70" height="102" as="alternateBounds" />
          </mxGeometry>
        </mxCell>
        <mxCell id="JX3x0ieXhLv8nkuyuOWl-83" value="&lt;span style=&quot;font-size: 18px&quot;&gt;Drive&lt;/span&gt;&lt;br style=&quot;font-size: 18px&quot;&gt;&lt;span style=&quot;font-size: 18px&quot;&gt;Car (Gear 2)&lt;/span&gt;" style="shape=partialRectangle;html=1;whiteSpace=wrap;connectable=0;overflow=hidden;fillColor=none;top=0;left=0;bottom=0;right=0;pointerEvents=1;" vertex="1" parent="JX3x0ieXhLv8nkuyuOWl-81">
          <mxGeometry x="70" width="110" height="102" as="geometry">
            <mxRectangle width="110" height="102" as="alternateBounds" />
          </mxGeometry>
        </mxCell>
        <mxCell id="JX3x0ieXhLv8nkuyuOWl-84" value="Engine = on&lt;br&gt;CurrentGear = Drive&lt;br&gt;DriveGear = 2&lt;br&gt;IdleRPM =&amp;nbsp;&lt;span style=&quot;background-color: rgb(204 , 255 , 153)&quot;&gt;XXX&lt;br&gt;&lt;/span&gt;GearRatio =&amp;nbsp;&lt;span style=&quot;background-color: rgb(204 , 255 , 153)&quot;&gt;XXX&lt;/span&gt;&lt;br&gt;&lt;span style=&quot;background-color: rgb(255 , 255 , 255)&quot;&gt;Velocity = 0&lt;/span&gt;" style="shape=partialRectangle;html=1;whiteSpace=wrap;connectable=0;overflow=hidden;fillColor=none;top=0;left=0;bottom=0;right=0;pointerEvents=1;align=left;" vertex="1" parent="JX3x0ieXhLv8nkuyuOWl-81">
          <mxGeometry x="180" width="310" height="102" as="geometry">
            <mxRectangle width="310" height="102" as="alternateBounds" />
          </mxGeometry>
        </mxCell>
        <mxCell id="JX3x0ieXhLv8nkuyuOWl-85" value="" style="shape=tableRow;horizontal=0;startSize=0;swimlaneHead=0;swimlaneBody=0;top=0;left=0;bottom=0;right=0;collapsible=0;dropTarget=0;fillColor=none;points=[[0,0.5],[1,0.5]];portConstraint=eastwest;" vertex="1" parent="JX3x0ieXhLv8nkuyuOWl-60">
          <mxGeometry y="638" width="490" height="101" as="geometry" />
        </mxCell>
        <mxCell id="JX3x0ieXhLv8nkuyuOWl-86" value="&lt;span style=&quot;font-size: 18px&quot;&gt;Use Case&lt;/span&gt;&lt;br style=&quot;font-size: 18px&quot;&gt;&lt;span style=&quot;font-size: 18px&quot;&gt;7&lt;/span&gt;" style="shape=partialRectangle;html=1;whiteSpace=wrap;connectable=0;overflow=hidden;fillColor=none;top=0;left=0;bottom=0;right=0;pointerEvents=1;" vertex="1" parent="JX3x0ieXhLv8nkuyuOWl-85">
          <mxGeometry width="70" height="101" as="geometry">
            <mxRectangle width="70" height="101" as="alternateBounds" />
          </mxGeometry>
        </mxCell>
        <mxCell id="JX3x0ieXhLv8nkuyuOWl-87" value="&lt;span style=&quot;font-size: 18px&quot;&gt;Drive&lt;/span&gt;&lt;br style=&quot;font-size: 18px&quot;&gt;&lt;span style=&quot;font-size: 18px&quot;&gt;Car (Gear 3)&lt;/span&gt;" style="shape=partialRectangle;html=1;whiteSpace=wrap;connectable=0;overflow=hidden;fillColor=none;top=0;left=0;bottom=0;right=0;pointerEvents=1;" vertex="1" parent="JX3x0ieXhLv8nkuyuOWl-85">
          <mxGeometry x="70" width="110" height="101" as="geometry">
            <mxRectangle width="110" height="101" as="alternateBounds" />
          </mxGeometry>
        </mxCell>
        <mxCell id="JX3x0ieXhLv8nkuyuOWl-88" value="Engine = on&lt;br&gt;CurrentGear = Drive&lt;br&gt;DriveGear = 3&lt;br&gt;IdleRPM =&amp;nbsp;&lt;span style=&quot;background-color: rgb(204 , 255 , 153)&quot;&gt;XXX&lt;br&gt;&lt;/span&gt;GearRatio =&amp;nbsp;&lt;span style=&quot;background-color: rgb(204 , 255 , 153)&quot;&gt;XXX&lt;/span&gt;&lt;br&gt;&lt;span style=&quot;background-color: rgb(255 , 255 , 255)&quot;&gt;Velocity = 0&lt;/span&gt;" style="shape=partialRectangle;html=1;whiteSpace=wrap;connectable=0;overflow=hidden;fillColor=none;top=0;left=0;bottom=0;right=0;pointerEvents=1;align=left;" vertex="1" parent="JX3x0ieXhLv8nkuyuOWl-85">
          <mxGeometry x="180" width="310" height="101" as="geometry">
            <mxRectangle width="310" height="101" as="alternateBounds" />
          </mxGeometry>
        </mxCell>
        <mxCell id="JX3x0ieXhLv8nkuyuOWl-89" value="" style="shape=tableRow;horizontal=0;startSize=0;swimlaneHead=0;swimlaneBody=0;top=0;left=0;bottom=0;right=0;collapsible=0;dropTarget=0;fillColor=none;points=[[0,0.5],[1,0.5]];portConstraint=eastwest;" vertex="1" parent="JX3x0ieXhLv8nkuyuOWl-60">
          <mxGeometry y="739" width="490" height="101" as="geometry" />
        </mxCell>
        <mxCell id="JX3x0ieXhLv8nkuyuOWl-90" value="&lt;span style=&quot;font-size: 18px&quot;&gt;Use Case&lt;/span&gt;&lt;br style=&quot;font-size: 18px&quot;&gt;&lt;span style=&quot;font-size: 18px&quot;&gt;8&lt;/span&gt;" style="shape=partialRectangle;html=1;whiteSpace=wrap;connectable=0;overflow=hidden;fillColor=none;top=0;left=0;bottom=0;right=0;pointerEvents=1;" vertex="1" parent="JX3x0ieXhLv8nkuyuOWl-89">
          <mxGeometry width="70" height="101" as="geometry">
            <mxRectangle width="70" height="101" as="alternateBounds" />
          </mxGeometry>
        </mxCell>
        <mxCell id="JX3x0ieXhLv8nkuyuOWl-91" value="&lt;span style=&quot;font-size: 18px&quot;&gt;Drive&lt;/span&gt;&lt;br style=&quot;font-size: 18px&quot;&gt;&lt;span style=&quot;font-size: 18px&quot;&gt;Car (Gear 4)&lt;/span&gt;" style="shape=partialRectangle;html=1;whiteSpace=wrap;connectable=0;overflow=hidden;fillColor=none;top=0;left=0;bottom=0;right=0;pointerEvents=1;" vertex="1" parent="JX3x0ieXhLv8nkuyuOWl-89">
          <mxGeometry x="70" width="110" height="101" as="geometry">
            <mxRectangle width="110" height="101" as="alternateBounds" />
          </mxGeometry>
        </mxCell>
        <mxCell id="JX3x0ieXhLv8nkuyuOWl-92" value="Engine = on&lt;br&gt;CurrentGear = Drive&lt;br&gt;DriveGear = 4&lt;br&gt;IdleRPM =&amp;nbsp;&lt;span style=&quot;background-color: rgb(204 , 255 , 153)&quot;&gt;XXX&lt;br&gt;&lt;/span&gt;GearRatio =&amp;nbsp;&lt;span style=&quot;background-color: rgb(204 , 255 , 153)&quot;&gt;XXX&lt;/span&gt;&lt;br&gt;&lt;span style=&quot;background-color: rgb(255 , 255 , 255)&quot;&gt;Velocity = 0&lt;/span&gt;" style="shape=partialRectangle;html=1;whiteSpace=wrap;connectable=0;overflow=hidden;fillColor=none;top=0;left=0;bottom=0;right=0;pointerEvents=1;align=left;" vertex="1" parent="JX3x0ieXhLv8nkuyuOWl-89">
          <mxGeometry x="180" width="310" height="101" as="geometry">
            <mxRectangle width="310" height="101" as="alternateBounds" />
          </mxGeometry>
        </mxCell>
        <mxCell id="JX3x0ieXhLv8nkuyuOWl-95" style="shape=tableRow;horizontal=0;startSize=0;swimlaneHead=0;swimlaneBody=0;top=0;left=0;bottom=0;right=0;collapsible=0;dropTarget=0;fillColor=none;points=[[0,0.5],[1,0.5]];portConstraint=eastwest;" vertex="1" parent="JX3x0ieXhLv8nkuyuOWl-60">
          <mxGeometry y="840" width="490" height="101" as="geometry" />
        </mxCell>
        <mxCell id="JX3x0ieXhLv8nkuyuOWl-96" value="&lt;span style=&quot;font-size: 18px&quot;&gt;Use Case&lt;/span&gt;&lt;br style=&quot;font-size: 18px&quot;&gt;&lt;span style=&quot;font-size: 18px&quot;&gt;9&lt;/span&gt;" style="shape=partialRectangle;html=1;whiteSpace=wrap;connectable=0;overflow=hidden;fillColor=none;top=0;left=0;bottom=0;right=0;pointerEvents=1;" vertex="1" parent="JX3x0ieXhLv8nkuyuOWl-95">
          <mxGeometry width="70" height="101" as="geometry">
            <mxRectangle width="70" height="101" as="alternateBounds" />
          </mxGeometry>
        </mxCell>
        <mxCell id="JX3x0ieXhLv8nkuyuOWl-97" value="&lt;span style=&quot;font-size: 18px&quot;&gt;Drive&lt;/span&gt;&lt;br style=&quot;font-size: 18px&quot;&gt;&lt;span style=&quot;font-size: 18px&quot;&gt;Car (Gear 5)&lt;/span&gt;" style="shape=partialRectangle;html=1;whiteSpace=wrap;connectable=0;overflow=hidden;fillColor=none;top=0;left=0;bottom=0;right=0;pointerEvents=1;" vertex="1" parent="JX3x0ieXhLv8nkuyuOWl-95">
          <mxGeometry x="70" width="110" height="101" as="geometry">
            <mxRectangle width="110" height="101" as="alternateBounds" />
          </mxGeometry>
        </mxCell>
        <mxCell id="JX3x0ieXhLv8nkuyuOWl-98" value="Engine = on&lt;br&gt;CurrentGear = Drive&lt;br&gt;DriveGear = 5&lt;br&gt;IdleRPM =&amp;nbsp;&lt;span style=&quot;background-color: rgb(204 , 255 , 153)&quot;&gt;XXX&lt;br&gt;&lt;/span&gt;GearRatio =&amp;nbsp;&lt;span style=&quot;background-color: rgb(204 , 255 , 153)&quot;&gt;XXX&lt;/span&gt;&lt;br&gt;&lt;span style=&quot;background-color: rgb(255 , 255 , 255)&quot;&gt;Velocity = 0&lt;/span&gt;" style="shape=partialRectangle;html=1;whiteSpace=wrap;connectable=0;overflow=hidden;fillColor=none;top=0;left=0;bottom=0;right=0;pointerEvents=1;align=left;" vertex="1" parent="JX3x0ieXhLv8nkuyuOWl-95">
          <mxGeometry x="180" width="310" height="101" as="geometry">
            <mxRectangle width="310" height="101" as="alternateBounds" />
          </mxGeometry>
        </mxCell>
        <mxCell id="JX3x0ieXhLv8nkuyuOWl-99" style="shape=tableRow;horizontal=0;startSize=0;swimlaneHead=0;swimlaneBody=0;top=0;left=0;bottom=0;right=0;collapsible=0;dropTarget=0;fillColor=none;points=[[0,0.5],[1,0.5]];portConstraint=eastwest;" vertex="1" parent="JX3x0ieXhLv8nkuyuOWl-60">
          <mxGeometry y="941" width="490" height="101" as="geometry" />
        </mxCell>
        <mxCell id="JX3x0ieXhLv8nkuyuOWl-100" value="&lt;span style=&quot;font-size: 18px&quot;&gt;Use Case&lt;/span&gt;&lt;br style=&quot;font-size: 18px&quot;&gt;&lt;span style=&quot;font-size: 18px&quot;&gt;10&lt;/span&gt;" style="shape=partialRectangle;html=1;whiteSpace=wrap;connectable=0;overflow=hidden;fillColor=none;top=0;left=0;bottom=0;right=0;pointerEvents=1;" vertex="1" parent="JX3x0ieXhLv8nkuyuOWl-99">
          <mxGeometry width="70" height="101" as="geometry">
            <mxRectangle width="70" height="101" as="alternateBounds" />
          </mxGeometry>
        </mxCell>
        <mxCell id="JX3x0ieXhLv8nkuyuOWl-101" value="&#xa;&#xa;&lt;span style=&quot;color: rgb(0, 0, 0); font-family: helvetica; font-style: normal; font-weight: 400; letter-spacing: normal; text-align: center; text-indent: 0px; text-transform: none; word-spacing: 0px; background-color: rgb(248, 249, 250); font-size: 18px;&quot;&gt;Drive&lt;/span&gt;&lt;br style=&quot;color: rgb(0, 0, 0); font-family: helvetica; font-style: normal; font-weight: 400; letter-spacing: normal; text-align: center; text-indent: 0px; text-transform: none; word-spacing: 0px; background-color: rgb(248, 249, 250); font-size: 18px;&quot;&gt;&lt;span style=&quot;color: rgb(0, 0, 0); font-family: helvetica; font-style: normal; font-weight: 400; letter-spacing: normal; text-align: center; text-indent: 0px; text-transform: none; word-spacing: 0px; background-color: rgb(248, 249, 250); font-size: 18px;&quot;&gt;Car (Gear 6)&lt;/span&gt;&#xa;&#xa;" style="shape=partialRectangle;html=1;whiteSpace=wrap;connectable=0;overflow=hidden;fillColor=none;top=0;left=0;bottom=0;right=0;pointerEvents=1;" vertex="1" parent="JX3x0ieXhLv8nkuyuOWl-99">
          <mxGeometry x="70" width="110" height="101" as="geometry">
            <mxRectangle width="110" height="101" as="alternateBounds" />
          </mxGeometry>
        </mxCell>
        <mxCell id="JX3x0ieXhLv8nkuyuOWl-102" value="Engine = on&lt;br&gt;CurrentGear = Drive&lt;br&gt;DriveGear = 6&lt;br&gt;IdleRPM =&amp;nbsp;&lt;span style=&quot;background-color: rgb(204 , 255 , 153)&quot;&gt;XXX&lt;br&gt;&lt;/span&gt;GearRatio =&amp;nbsp;&lt;span style=&quot;background-color: rgb(204 , 255 , 153)&quot;&gt;XXX&lt;/span&gt;&lt;br&gt;&lt;span style=&quot;background-color: rgb(255 , 255 , 255)&quot;&gt;Velocity = 0&lt;/span&gt;" style="shape=partialRectangle;html=1;whiteSpace=wrap;connectable=0;overflow=hidden;fillColor=none;top=0;left=0;bottom=0;right=0;pointerEvents=1;align=left;" vertex="1" parent="JX3x0ieXhLv8nkuyuOWl-99">
          <mxGeometry x="180" width="310" height="101" as="geometry">
            <mxRectangle width="310" height="101" as="alternateBounds" />
          </mxGeometry>
        </mxCell>
      </root>
    </mxGraphModel>
  </diagram>
</mxfile>
